<svg clip-rule="evenodd" fill-rule="evenodd" stroke-linejoin="round" stroke-miterlimit="2" viewBox="0 0 896 211" xmlns="http://www.w3.org/2000/svg"><g fill="#474f85" fill-rule="nonzero" stroke="#474f85" stroke-width=".86" transform="matrix(2.9106 0 0 2.9106 -254.36 -1004.219)"><path d="m142.505 379.152c.467.033.775.25.925.65s.109.791-.125 1.175c-.233.383-.583.558-1.05.525-3.366-.267-7.133-.067-11.3.6-.366 11-1.083 22.266-2.15 33.8-.033.5-.258.825-.675.975-.416.15-.808.1-1.175-.15-.366-.25-.516-.609-.45-1.075 1-11.234 1.7-22.284 2.1-33.15-3.033.6-6.583 1.483-10.65 2.65-4.933 1.4-9.516 3-13.75 4.8-2.333 7.333-4.133 14.3-5.4 20.9-.133.666-.55 1-1.25 1-.666 0-1.033-.3-1.1-.9 0-.1.017-.217.05-.35 1.2-6.334 2.8-12.784 4.8-19.35-4.3 2.033-8.15 4.25-11.55 6.65-.4.266-.808.3-1.225.1-.416-.2-.65-.484-.7-.85-.05-.367.092-.717.425-1.05 4.1-2.9 8.767-5.517 14-7.85 1.834-5.634 3.884-11.2 6.15-16.7.067-.2.392-1.009.975-2.425.584-1.417.95-2.309 1.1-2.675.15-.367.509-1.209 1.075-2.525.567-1.317.984-2.234 1.25-2.75.267-.517.692-1.359 1.275-2.525.584-1.167 1.075-2.05 1.475-2.65s.909-1.384 1.525-2.35c.617-.967 1.192-1.759 1.725-2.375.534-.617 1.134-1.275 1.8-1.975.667-.7 1.334-1.317 2-1.85 1.167-.934 2.209-1.467 3.125-1.6.917-.134 1.675.091 2.275.675.6.583 1.084 1.333 1.45 2.25.367.916.65 2.025.85 3.325.467 2.8.775 5.983.925 9.55.15 3.566.2 6.391.15 8.475-.05 2.083-.158 5.291-.325 9.625 4.2-.634 8.017-.834 11.45-.6zm-25.95 4c4.634-1.367 8.684-2.367 12.15-3 .2-3.834.292-8.117.275-12.85-.016-4.734-.241-9-.675-12.8-.033-.1-.075-.45-.125-1.05s-.108-1.134-.175-1.6c-.066-.467-.15-1-.25-1.6s-.258-1.1-.475-1.5c-.216-.4-.458-.65-.725-.75-1.066-.5-3.016 1.15-5.85 4.95-1.833 2.466-3.6 5.35-5.3 8.65s-3.058 6.2-4.075 8.7c-1.016 2.5-2.225 5.666-3.625 9.5-.9 2.433-1.75 4.85-2.55 7.25 3.534-1.434 7.334-2.734 11.4-3.9z"/><path d="m161.955 391.702c.334 0 .609.116.825.35.217.233.325.508.325.825 0 .316-.116.591-.35.825-1.133 1.066-2.283 1.6-3.45 1.6-.566 0-1.083-.167-1.55-.5-.466-.3-.841-.825-1.125-1.575-.283-.75-.466-1.442-.55-2.075-.083-.634-.191-1.567-.325-2.8-.2-2.2-.416-3.5-.65-3.9-.8.233-2.816 2.316-6.05 6.25-1.166 1.433-2.033 2.45-2.6 3.05-.566.6-1.05.991-1.45 1.175-.4.183-.783.141-1.15-.125-.366-.267-.533-.617-.5-1.05.2-2.067 1.384-7.417 3.55-16.05.1-.3.284-.534.55-.7.267-.167.559-.217.875-.15.317.066.559.241.725.525.167.283.217.575.15.875-1.066 4.066-2.016 8.1-2.85 12.1.234-.3.534-.684.9-1.15 2.2-2.667 3.9-4.55 5.1-5.65s2.267-1.584 3.2-1.45c.467.066.859.25 1.175.55.317.3.559.783.725 1.45.167.666.292 1.25.375 1.75.084.5.175 1.266.275 2.3.267 2.9.584 4.483.95 4.75.2.133.517.091.95-.125.434-.217.817-.475 1.15-.775.2-.2.467-.3.8-.3z"/><path d="m179.805 391.702c.334 0 .609.116.825.35.217.233.325.508.325.825 0 .316-.116.591-.35.825-1.133 1.066-2.283 1.6-3.45 1.6-.566 0-1.083-.167-1.55-.5-.466-.3-.841-.825-1.125-1.575-.283-.75-.466-1.442-.55-2.075-.083-.634-.191-1.567-.325-2.8-.2-2.2-.416-3.5-.65-3.9-.8.233-2.816 2.316-6.05 6.25-1.166 1.433-2.033 2.45-2.6 3.05-.566.6-1.05.991-1.45 1.175-.4.183-.783.141-1.15-.125-.366-.267-.533-.617-.5-1.05.2-2.067 1.384-7.417 3.55-16.05.1-.3.284-.534.55-.7.267-.167.559-.217.875-.15.317.066.559.241.725.525.167.283.217.575.15.875-1.066 4.066-2.016 8.1-2.85 12.1.234-.3.534-.684.9-1.15 2.2-2.667 3.9-4.55 5.1-5.65s2.267-1.584 3.2-1.45c.467.066.859.25 1.175.55.317.3.559.783.725 1.45.167.666.292 1.25.375 1.75.084.5.175 1.266.275 2.3.267 2.9.584 4.483.95 4.75.2.133.517.091.95-.125.434-.217.817-.475 1.15-.775.2-.2.467-.3.8-.3z"/><path d="m199.405 385.802c.334-.067.625 0 .875.2s.4.458.45.775c.05.316-.025.608-.225.875-.233.3-.508.633-.825 1-.316.366-.825.9-1.525 1.6s-1.4 1.316-2.1 1.85c-.7.533-1.5 1-2.4 1.4s-1.75.6-2.55.6-1.533-.2-2.2-.6c-1-.6-1.516-1.684-1.55-3.25-2.233 2.733-4.35 3.833-6.35 3.3-1.633-.467-2.466-1.617-2.5-3.45-.033-1.3.425-2.85 1.375-4.65s2.092-3.4 3.425-4.8c1.334-1.4 2.534-2.25 3.6-2.55.934-.3 1.784-.217 2.55.25.434.266.817.666 1.15 1.2v-.075-.025c.167-.267.392-.459.675-.575.284-.117.567-.109.85.025.284.133.492.35.625.65.134.3.134.583 0 .85-.466 1.166-.983 2.35-1.55 3.55-.733 1.9-1.208 3.533-1.425 4.9-.216 1.366-.108 2.25.325 2.65.467.333 1.034.4 1.7.2.667-.2 1.317-.492 1.95-.875.634-.384 1.292-.884 1.975-1.5.684-.617 1.259-1.184 1.725-1.7.467-.517.867-.992 1.2-1.425.2-.234.45-.367.75-.4zm-10.35-2.8c.067-.167.15-.367.25-.6-.133-.167-.233-.35-.3-.55-.133-.767-.4-1.267-.8-1.5-.066-.067-.15-.1-.25-.1s-.216.016-.35.05c-1.233.366-2.675 1.716-4.325 4.05-1.65 2.333-2.458 4.25-2.425 5.75 0 .633.267 1.033.8 1.2.967.266 2.125-.425 3.475-2.075s2.659-3.725 3.925-6.225z"/><path d="m261.655 392.052c.367-.3.75-.359 1.15-.175.4.183.634.475.7.875.067.4-.066.766-.4 1.1-.333.3-1.325 1.116-2.975 2.45-1.65 1.333-2.725 2.191-3.225 2.575-.5.383-1.491 1.166-2.975 2.35-1.483 1.183-2.575 2.008-3.275 2.475-.7.466-1.733 1.191-3.1 2.175-1.366.983-2.516 1.733-3.45 2.25-.933.516-2.025 1.133-3.275 1.85-1.25.716-2.466 1.333-3.65 1.85-1.183.516-2.391.991-3.625 1.425-1.166.4-2.341.758-3.525 1.075-1.183.316-2.516.608-4 .875-1.483.266-2.883.35-4.2.25-1.316-.1-2.558-.342-3.725-.725-1.166-.384-2.158-1.067-2.975-2.05-.816-.984-1.341-2.225-1.575-3.725-.3-1.867-.266-3.834.1-5.9.367-2.067 1.025-4.117 1.975-6.15.95-2.034 1.892-3.85 2.825-5.45.934-1.6 2.05-3.3 3.35-5.1 3.867-5.534 8.017-10.1 12.45-13.7-.033 0-.191.025-.475.075-.283.05-.508.091-.675.125-1.233.233-2.208.391-2.925.475-.716.083-1.666.075-2.85-.025-1.183-.1-2.125-.4-2.825-.9-1.133-.767-1.825-1.875-2.075-3.325s-.141-2.959.325-4.525c.467-1.567 1.05-3.034 1.75-4.4.7-1.367 1.417-2.484 2.15-3.35 2.067-2.5 4.567-4.7 7.5-6.6 2.934-1.9 5.967-3.284 9.1-4.15 2.9-.834 5.017-.8 6.35.1 1.234.8 1.959 1.958 2.175 3.475.217 1.516-.141 2.825-1.075 3.925-.3.333-.675.458-1.125.375-.45-.084-.758-.3-.925-.65-.166-.35-.116-.725.15-1.125.5-.6.809-1.142.925-1.625.117-.484.067-.884-.15-1.2-.216-.317-.525-.584-.925-.8-.4-.217-.85-.367-1.35-.45-.5-.084-1-.125-1.5-.125s-.933.05-1.3.15c-1.733.4-3.716 1.166-5.95 2.3-4.833 2.466-8.5 5.483-11 9.05-1.633 2.333-2.5 4.65-2.6 6.95-.066 1.6.175 2.758.725 3.475.55.716 1.575 1.075 3.075 1.075 4.3 0 8.367-.934 12.2-2.8 1.034-.567 1.584-.867 1.65-.9.434-.2.809-.175 1.125.075.317.25.467.6.45 1.05-.016.45-.225.791-.625 1.025-6.5 3.133-12.716 8.666-18.65 16.6-2.633 3.5-4.783 6.916-6.45 10.25-1.666 3.333-2.566 6.65-2.7 9.95-.066 1.6.184 2.925.75 3.975.567 1.05 1.325 1.791 2.275 2.225.95.433 2.084.675 3.4.725 1.317.05 2.642-.042 3.975-.275 1.334-.234 2.734-.575 4.2-1.025 1.467-.45 2.742-.892 3.825-1.325 1.084-.434 2.109-.867 3.075-1.3 1.234-.6 2.467-1.242 3.7-1.925 1.234-.684 2.5-1.45 3.8-2.3s2.434-1.609 3.4-2.275c.967-.667 2.159-1.559 3.575-2.675 1.417-1.117 2.492-1.967 3.225-2.55.734-.584 1.884-1.517 3.45-2.8 1.567-1.284 2.65-2.159 3.25-2.625z"/><path d="m274.755 378.202c.334.033.6.175.8.425s.284.533.25.85c-.033.316-.183.575-.45.775-.266.2-.55.283-.85.25-1.533-.2-3.075.475-4.625 2.025s-2.9 3.533-4.05 5.95c-1.15 2.416-2.141 5.075-2.975 7.975-.133.533-.466.816-1 .85-.033.033-.066.05-.1.05-.5 0-.85-.217-1.05-.65-.8-1.634.567-9.484 4.1-23.55.067-.3.242-.534.525-.7.284-.167.575-.209.875-.125.3.083.534.258.7.525.167.266.217.566.15.9-1.166 4.7-2.166 9.066-3 13.1 1.467-2.867 3.109-5.092 4.925-6.675 1.817-1.584 3.742-2.242 5.775-1.975z"/><path d="m299.355 389.102c.2-.267.459-.425.775-.475.317-.05.609.008.875.175.267.166.434.408.5.725.067.316 0 .608-.2.875-.133.2-.3.433-.5.7-.2.266-.6.716-1.2 1.35-.6.633-1.216 1.183-1.85 1.65-.633.466-1.416.891-2.35 1.275-.933.383-1.866.575-2.8.575-.633 0-1.266-.084-1.9-.25-2.266-.634-3.716-2.434-4.35-5.4-.233-1.034-.35-2.2-.35-3.5-2.5 3.2-4.625 5.4-6.375 6.6s-3.291 1.333-4.625.4c-.033 0-.066-.034-.1-.1-1.566-1.367-1.85-3.367-.85-6 .734-1.9 1.984-3.759 3.75-5.575 1.767-1.817 3.317-2.725 4.65-2.725.334 0 .617.116.85.35.234.233.35.508.35.825 0 .316-.116.591-.35.825-.233.233-.516.35-.85.35-.633 0-1.666.725-3.1 2.175-1.433 1.45-2.466 2.991-3.1 4.625-.6 1.566-.55 2.7.15 3.4 1.434.8 4.717-2.334 9.85-9.4.7-5.767 2.5-12.017 5.4-18.75 2.9-6.734 5.617-11.167 8.15-13.3 1.4-1.167 2.667-1.534 3.8-1.1.6.266 1 .733 1.2 1.4.6 2.033-.708 6.216-3.925 12.55-3.216 6.333-7.091 12.666-11.625 19-.366.5-.633.866-.8 1.1-.266 2.533-.216 4.65.15 6.35.467 2.066 1.384 3.283 2.75 3.65.434.166.892.225 1.375.175.484-.05.925-.125 1.325-.225s.817-.275 1.25-.525c.434-.25.809-.484 1.125-.7.317-.217.642-.484.975-.8.334-.317.6-.584.8-.8.2-.217.4-.459.6-.725.2-.267.334-.442.4-.525.067-.084.117-.142.15-.175zm1.95-36.8c-2 1.666-4.2 5.1-6.6 10.3s-4.183 10.366-5.35 15.5c4.267-6.234 7.617-11.917 10.05-17.05 2.434-5.134 3.5-8.284 3.2-9.45-.333 0-.766.233-1.3.7z"/><path d="m313.905 382.852c.334-.067.634-.009.9.175.267.183.425.433.475.75.05.316-.025.608-.225.875-.533.733-1.141 1.516-1.825 2.35-.683.833-1.625 1.875-2.825 3.125s-2.466 2.266-3.8 3.05c-1.333.783-2.55 1.175-3.65 1.175-.7 0-1.35-.15-1.95-.45-.733-.434-1.191-1.267-1.375-2.5-.183-1.234-.108-2.667.225-4.3.334-1.634.684-3.084 1.05-4.35.367-1.267.784-2.534 1.25-3.8.1-.3.292-.517.575-.65.284-.134.575-.15.875-.05.2.066.367.183.5.35.134.166.217.341.25.525.034.183.017.391-.05.625-.7 1.933-1.275 3.841-1.725 5.725-.45 1.883-.691 3.341-.725 4.375-.033 1.033.067 1.7.3 2 1.1.6 2.75-.042 4.95-1.925 2.2-1.884 4.217-4.092 6.05-6.625.2-.267.45-.417.75-.45zm-10.95-8.4c-.566 0-.933-.267-1.1-.8-.133-.3-.125-.592.025-.875.15-.284.375-.492.675-.625.067 0 .175-.034.325-.1.15-.067.309-.134.475-.2.167-.067.325-.134.475-.2.15-.067.284-.125.4-.175.117-.05.175-.075.175-.075l.9 2.2c-1.066.433-1.733.683-2 .75-.1.066-.216.1-.35.1z"/><path d="m331.555 385.802c.334-.067.625 0 .875.2s.4.458.45.775c.05.316-.025.608-.225.875-.233.3-.508.633-.825 1-.316.366-.825.9-1.525 1.6s-1.4 1.316-2.1 1.85c-.7.533-1.5 1-2.4 1.4s-1.75.6-2.55.6-1.533-.2-2.2-.6c-1-.6-1.516-1.684-1.55-3.25-2.233 2.733-4.35 3.833-6.35 3.3-1.633-.467-2.466-1.617-2.5-3.45-.033-1.3.425-2.85 1.375-4.65s2.092-3.4 3.425-4.8c1.334-1.4 2.534-2.25 3.6-2.55.934-.3 1.784-.217 2.55.25.434.266.817.666 1.15 1.2v-.075-.025c.167-.267.392-.459.675-.575.284-.117.567-.109.85.025.284.133.492.35.625.65.134.3.134.583 0 .85-.466 1.166-.983 2.35-1.55 3.55-.733 1.9-1.208 3.533-1.425 4.9-.216 1.366-.108 2.25.325 2.65.467.333 1.034.4 1.7.2.667-.2 1.317-.492 1.95-.875.634-.384 1.292-.884 1.975-1.5.684-.617 1.259-1.184 1.725-1.7.467-.517.867-.992 1.2-1.425.2-.234.45-.367.75-.4zm-10.35-2.8c.067-.167.15-.367.25-.6-.133-.167-.233-.35-.3-.55-.133-.767-.4-1.267-.8-1.5-.066-.067-.15-.1-.25-.1s-.216.016-.35.05c-1.233.366-2.675 1.716-4.325 4.05-1.65 2.333-2.458 4.25-2.425 5.75 0 .633.267 1.033.8 1.2.967.266 2.125-.425 3.475-2.075s2.659-3.725 3.925-6.225z"/><path d="m354.705 379.252c.334.066.6.225.8.475s.284.525.25.825c-.166 1.4-1.183 3.516-3.05 6.35-1.866 2.833-3.616 4.633-5.25 5.4-1.133.533-2.133.516-3-.05-1.633-1.034-2.2-3.55-1.7-7.55-2.666 3.6-4.858 6.158-6.575 7.675-1.716 1.516-3.091 2.275-4.125 2.275-.333 0-.65-.1-.95-.3-.733-.467-1.125-1.342-1.175-2.625-.05-1.284.2-2.817.75-4.6.55-1.784 1.125-3.434 1.725-4.95.6-1.517 1.3-3.092 2.1-4.725.134-.3.35-.5.65-.6s.6-.084.9.05c.3.133.5.35.6.65s.084.6-.05.9c-1.466 3.1-2.625 6.041-3.475 8.825-.85 2.783-1.108 4.475-.775 5.075.8-.167 2.35-1.584 4.65-4.25 2.3-2.667 4.667-5.8 7.1-9.4.367-.567.85-.7 1.45-.4.267.1.459.283.575.55.117.266.142.533.075.8-.4 1.366-.725 2.791-.975 4.275-.25 1.483-.35 2.841-.3 4.075.05 1.233.309 2 .775 2.3.134.1.384.066.75-.1 1.267-.6 2.717-2.159 4.35-4.675 1.634-2.517 2.517-4.259 2.65-5.225.034-.334.175-.6.425-.8s.525-.284.825-.25z"/><path d="m376.905 385.802c.334-.067.625 0 .875.2s.4.458.45.775c.05.316-.025.608-.225.875-.233.3-.508.633-.825 1-.316.366-.825.9-1.525 1.6s-1.4 1.316-2.1 1.85c-.7.533-1.5 1-2.4 1.4s-1.75.6-2.55.6-1.533-.2-2.2-.6c-1-.6-1.516-1.684-1.55-3.25-2.233 2.733-4.35 3.833-6.35 3.3-1.633-.467-2.466-1.617-2.5-3.45-.033-1.3.425-2.85 1.375-4.65s2.092-3.4 3.425-4.8c1.334-1.4 2.534-2.25 3.6-2.55.934-.3 1.784-.217 2.55.25.434.266.817.666 1.15 1.2v-.075-.025c.167-.267.392-.459.675-.575.284-.117.567-.109.85.025.284.133.492.35.625.65.134.3.134.583 0 .85-.466 1.166-.983 2.35-1.55 3.55-.733 1.9-1.208 3.533-1.425 4.9-.216 1.366-.108 2.25.325 2.65.467.333 1.034.4 1.7.2.667-.2 1.317-.492 1.95-.875.634-.384 1.292-.884 1.975-1.5.684-.617 1.259-1.184 1.725-1.7.467-.517.867-.992 1.2-1.425.2-.234.45-.367.75-.4zm-10.35-2.8c.067-.167.15-.367.25-.6-.133-.167-.233-.35-.3-.55-.133-.767-.4-1.267-.8-1.5-.066-.067-.15-.1-.25-.1s-.216.016-.35.05c-1.233.366-2.675 1.716-4.325 4.05-1.65 2.333-2.458 4.25-2.425 5.75 0 .633.267 1.033.8 1.2.967.266 2.125-.425 3.475-2.075s2.659-3.725 3.925-6.225z"/><path d="m393.405 391.702c.334 0 .609.116.825.35.217.233.325.508.325.825 0 .316-.116.591-.35.825-1.133 1.066-2.283 1.6-3.45 1.6-.566 0-1.083-.167-1.55-.5-.466-.3-.841-.825-1.125-1.575-.283-.75-.466-1.442-.55-2.075-.083-.634-.191-1.567-.325-2.8-.2-2.2-.416-3.5-.65-3.9-.8.233-2.816 2.316-6.05 6.25-1.166 1.433-2.033 2.45-2.6 3.05-.566.6-1.05.991-1.45 1.175-.4.183-.783.141-1.15-.125-.366-.267-.533-.617-.5-1.05.2-2.067 1.384-7.417 3.55-16.05.1-.3.284-.534.55-.7.267-.167.559-.217.875-.15.317.066.559.241.725.525.167.283.217.575.15.875-1.066 4.066-2.016 8.1-2.85 12.1.234-.3.534-.684.9-1.15 2.2-2.667 3.9-4.55 5.1-5.65s2.267-1.584 3.2-1.45c.467.066.859.25 1.175.55.317.3.559.783.725 1.45.167.666.292 1.25.375 1.75.084.5.175 1.266.275 2.3.267 2.9.584 4.483.95 4.75.2.133.517.091.95-.125.434-.217.817-.475 1.15-.775.2-.2.467-.3.8-.3z"/></g></svg>