<?xml version="1.0" encoding="UTF-8" standalone="no"?><!DOCTYPE svg PUBLIC "-//W3C//DTD SVG 1.1//EN" "http://www.w3.org/Graphics/SVG/1.1/DTD/svg11.dtd"><svg width="100%" height="100%" viewBox="0 0 480 144" version="1.1" xmlns="http://www.w3.org/2000/svg" xmlns:xlink="http://www.w3.org/1999/xlink" xml:space="preserve" xmlns:serif="http://www.serif.com/" style="fill-rule:evenodd;clip-rule:evenodd;stroke-linejoin:round;stroke-miterlimit:2;"><g><path d="M32.469,94.637c0.686,-0.066 1.499,-0.247 2.439,-0.545c2.416,-0.785 3.673,-2.117 3.769,-3.995l0.199,-3.34c0.623,-6.496 0.806,-11.081 0.55,-13.755c-0.112,-1.166 -0.305,-1.735 -0.58,-1.709c-0.617,0.059 -2.529,4.291 -5.737,12.695c-1.975,5.379 -2.901,8.721 -2.776,10.023c0.053,0.549 0.765,0.758 2.136,0.626Zm21.954,37.34c-1.509,0.145 -3.015,-0.403 -4.518,-1.643c-2.499,-2.252 -4.429,-5.232 -5.788,-8.943c-1.359,-3.71 -2.446,-7.291 -3.261,-10.742c-0.662,-2.566 -1.293,-4.634 -1.893,-6.202c-0.6,-1.569 -1.277,-2.317 -2.031,-2.245c-3.223,0.309 -5.83,0.905 -7.822,1.788c-1.991,0.883 -3.188,2.832 -3.591,5.846c-0.114,0.98 -0.164,2.265 -0.15,3.855c-0.215,5.695 -0.708,8.856 -1.478,9.484c-0.509,0.464 -1.106,0.729 -1.792,0.794c-1.029,0.099 -2.203,-0.238 -3.523,-1.011c-2.482,-1.354 -3.835,-3.196 -4.059,-5.528c-0.105,-1.097 0.034,-2.356 0.417,-3.776c0.382,-1.421 0.541,-2.474 0.475,-3.16c-0.072,-0.754 -0.486,-1.095 -1.24,-1.023c-0.617,0.059 -1.879,0.613 -3.785,1.66c-1.906,1.048 -3.134,1.598 -3.683,1.651c-1.028,0.099 -2.097,-0.404 -3.206,-1.509c-1.11,-1.105 -1.737,-2.411 -1.881,-3.92c-0.152,-1.577 0.606,-2.878 2.272,-3.903c1.667,-1.025 3.879,-1.946 6.638,-2.764c4.701,-1.489 7.803,-3.067 9.304,-4.733l17.27,-47.225c1.503,-3.812 4.072,-5.892 7.706,-6.241c1.303,-0.124 2.694,-0.05 4.173,0.223c2.479,0.593 3.798,1.712 3.955,3.358c0.138,1.44 -0.033,3.255 -0.515,5.447c-3.455,20.261 -4.598,36.495 -3.427,48.7c1.216,12.686 3.695,21.583 7.438,26.691c0.791,1.031 1.209,1.787 1.255,2.267c0.053,0.549 -0.272,1.133 -0.974,1.754c-0.701,0.621 -1.464,0.971 -2.286,1.05Z" style="fill:#474f85;fill-rule:nonzero;"/><path d="M67.122,113.943c-0.96,0.092 -1.905,-0.025 -2.836,-0.351c-3.848,-1.153 -5.954,-3.269 -6.318,-6.348c-0.086,-0.892 -0.089,-1.653 -0.011,-2.283c1.153,-8.899 2.241,-17.758 3.264,-26.575c0.292,-2.727 1.327,-4.21 3.103,-4.45c0.48,-0.046 1.073,0.001 1.778,0.141c2.897,0.622 4.478,1.958 4.744,4.009c0.059,0.617 -0.027,1.525 -0.258,2.723c-1.006,4.664 -1.42,7.922 -1.242,9.773c0.072,0.754 0.245,1.118 0.519,1.092c0.343,-0.033 0.929,-0.781 1.757,-2.244c3.915,-6.811 7.537,-12.695 10.868,-17.651c1.69,-2.584 3.492,-4.002 5.405,-4.255c1.029,-0.099 2.049,0.08 3.062,0.537c2.388,1.086 3.757,3.1 4.108,6.042c0.073,0.754 0.049,1.587 -0.071,2.498c-1.912,13.262 -2.684,21.813 -2.316,25.653c0.336,3.498 0.766,5.463 1.292,5.897c0.177,0.398 0.282,0.769 0.315,1.112c0.046,0.48 -0.188,0.935 -0.7,1.364c-0.512,0.43 -1.077,0.675 -1.694,0.734c-1.372,0.131 -2.727,-0.292 -4.067,-1.271c-2.816,-1.945 -4.476,-4.83 -4.982,-8.657c-0.499,-5.211 -0.742,-8.458 -0.726,-9.74c0.015,-1.281 -0.003,-2.197 -0.056,-2.745c-0.039,-0.412 -0.127,-0.611 -0.265,-0.598c-0.342,0.033 -3.496,6.841 -9.46,20.422c-1.418,3.25 -3.156,4.974 -5.213,5.171Z" style="fill:#474f85;fill-rule:nonzero;"/><path d="M107.03,110.117c-0.96,0.092 -1.905,-0.025 -2.836,-0.351c-3.847,-1.154 -5.953,-3.27 -6.318,-6.349c-0.085,-0.892 -0.089,-1.652 -0.011,-2.283c1.153,-8.899 2.242,-17.757 3.265,-26.575c0.292,-2.727 1.326,-4.21 3.102,-4.449c0.48,-0.046 1.073,0.001 1.778,0.141c2.897,0.621 4.479,1.958 4.745,4.008c0.059,0.617 -0.027,1.525 -0.258,2.724c-1.006,4.664 -1.421,7.921 -1.243,9.773c0.072,0.754 0.246,1.118 0.52,1.092c0.343,-0.033 0.928,-0.781 1.757,-2.245c3.914,-6.811 7.537,-12.695 10.868,-17.65c1.689,-2.584 3.491,-4.003 5.404,-4.256c1.029,-0.098 2.05,0.081 3.062,0.537c2.388,1.086 3.757,3.1 4.109,6.042c0.072,0.754 0.048,1.587 -0.072,2.498c-1.912,13.263 -2.683,21.814 -2.315,25.654c0.335,3.497 0.766,5.462 1.292,5.896c0.176,0.399 0.281,0.769 0.314,1.112c0.046,0.48 -0.187,0.935 -0.7,1.365c-0.512,0.43 -1.077,0.674 -1.694,0.733c-1.371,0.132 -2.727,-0.292 -4.066,-1.271c-2.816,-1.944 -4.477,-4.83 -4.982,-8.657c-0.5,-5.211 -0.742,-8.458 -0.727,-9.739c0.016,-1.282 -0.003,-2.197 -0.055,-2.746c-0.04,-0.411 -0.128,-0.61 -0.265,-0.597c-0.343,0.033 -3.496,6.84 -9.46,20.422c-1.419,3.25 -3.156,4.973 -5.214,5.171Z" style="fill:#474f85;fill-rule:nonzero;"/><path d="M168.537,102.039c-0.548,0.053 -1.035,0.03 -1.459,-0.067c-5.582,-1.195 -8.678,-4.981 -9.29,-11.358c-0.217,-2.263 -0.565,-3.372 -1.045,-3.326c-0.069,0.007 -1.548,2.26 -4.439,6.758c-1.621,2.577 -3.195,4.926 -4.722,7.044c-1.527,2.119 -3.182,3.264 -4.965,3.435c-1.371,0.131 -2.744,-0.118 -4.119,-0.747c-2.963,-1.308 -4.599,-3.573 -4.908,-6.796c-0.079,-0.823 -0.058,-1.69 0.062,-2.601c0.892,-8.736 4.185,-17.701 9.877,-26.897c2.339,-3.754 4.949,-5.769 7.829,-6.045c1.782,-0.171 3.448,0.24 4.997,1.234c1.548,0.993 2.362,1.901 2.441,2.724c0.079,0.823 0.004,1.487 -0.224,1.994c-0.617,1.512 -1.37,2.311 -2.262,2.396c-0.96,0.092 -1.731,-0.007 -2.312,-0.297c-0.581,-0.29 -1.081,-0.45 -1.499,-0.479c-0.412,0.039 -0.914,0.572 -1.508,1.598c-2.567,4.26 -4.944,10.508 -7.129,18.745c-0.313,1.068 -0.45,1.808 -0.41,2.219c0.032,0.343 0.152,0.505 0.357,0.485c1.029,-0.099 3.685,-3.433 7.968,-10.003c5.429,-8.34 8.809,-12.781 10.141,-13.324c0.735,-0.278 1.376,-0.444 1.925,-0.496c0.548,-0.053 1.001,-0.027 1.357,0.077c2.018,0.845 3.166,2.707 3.442,5.587c0.118,1.234 0.068,2.519 -0.15,3.855c-0.754,5.124 -0.95,9.572 -0.589,13.343c0.27,2.811 1.112,5.464 2.528,7.958c0.327,0.522 0.507,0.955 0.54,1.298c0.092,0.96 -0.719,1.522 -2.434,1.686Z" style="fill:#474f85;fill-rule:nonzero;"/><path d="M214.741,107.574c-1.989,0.191 -3.723,0.149 -5.202,-0.124c-6.744,-1.775 -10.715,-6.377 -11.912,-13.805c-0.542,-4.931 -0.973,-7.623 -1.293,-8.077c-0.32,-0.453 -0.926,-0.638 -1.818,-0.552c-0.953,0.161 -2.435,0.579 -4.446,1.257c-0.803,0.284 -1.548,0.46 -2.234,0.525c-0.96,0.092 -1.737,-0.075 -2.331,-0.503c-1.552,-1.027 -2.414,-2.433 -2.585,-4.215c-0.164,-1.715 1.274,-2.96 4.313,-3.736c4.398,-1.044 7.313,-3.123 8.745,-6.236c0.606,-0.888 1.406,-4.46 2.398,-10.714c0.845,-5.617 1.212,-9.009 1.1,-10.174c-0.18,-1.159 -1.642,-1.607 -4.385,-1.344l-1.337,0.128c-0.754,0.072 -1.448,-0.311 -2.082,-1.15c-0.634,-0.839 -1.035,-1.769 -1.202,-2.791c-0.151,-1.577 0.731,-2.838 2.648,-3.783c0.989,-0.51 1.984,-0.952 2.987,-1.325c1.867,-0.732 3.542,-1.672 5.023,-2.817c1.482,-1.146 2.54,-2.925 3.173,-5.339c0.634,-2.413 2.288,-3.748 4.962,-4.005c2.469,-0.236 3.766,0.297 3.891,1.6l-0.044,0.627c-0.163,1.192 -0.227,1.959 -0.195,2.302c0.099,1.028 1.108,1.451 3.028,1.267c5.943,-1.539 10.799,-2.489 14.571,-2.851c2.605,-0.25 4.686,-0.207 6.24,0.128c2.123,0.489 3.355,1.789 3.696,3.902c0.164,1.714 -0.405,2.634 -1.708,2.759c-17.76,1.703 -27.309,4.591 -28.649,8.664c-0.218,1.335 -0.646,3.003 -1.285,5.001c-1.99,7.388 -2.867,12.316 -2.631,14.785c0.178,1.851 1.501,2.659 3.97,2.422c0.96,-0.092 2.953,-0.594 5.979,-1.507c4.029,-1.286 7.826,-2.1 11.392,-2.442c5.966,-0.572 9.307,1.08 10.025,4.955c0.158,1.646 -0.751,2.633 -2.726,2.961c-1.578,0.151 -4.676,0.31 -9.297,0.476c-4.32,0.414 -8.512,1.439 -12.577,3.074c-3.659,1.527 -5.931,3.095 -6.815,4.702c-0.525,1.019 -0.712,2.317 -0.561,3.894c1.039,10.835 3.036,16.145 5.991,15.93c3.84,-0.368 7.55,-2.453 11.13,-6.257c0.819,-0.84 1.606,-1.296 2.36,-1.368c0.617,-0.059 1.247,0.192 1.889,0.753c0.642,0.561 0.999,1.219 1.071,1.973c0.283,2.949 -2.228,5.992 -7.532,9.131c-1.636,0.987 -3.547,1.62 -5.735,1.899Z" style="fill:#474f85;fill-rule:nonzero;"/><path d="M246.544,97.155c-1.989,0.19 -3.766,-0.297 -5.331,-1.461c-0.826,-0.682 -1.302,-1.675 -1.427,-2.978c0.236,-14.139 0.637,-25.838 1.202,-35.096c0.159,-1.953 1.095,-3.012 2.81,-3.176c4.182,-0.401 6.455,1.284 6.816,5.055c0.066,0.686 -0.017,1.628 -0.248,2.827c-0.273,1.479 -0.354,2.802 -0.242,3.967c0.099,1.029 0.285,1.53 0.559,1.504c0.206,-0.02 0.42,-0.317 0.641,-0.892c1.193,-3.436 3.762,-6.243 7.705,-8.42c1.244,-0.742 2.517,-1.176 3.82,-1.301c1.165,-0.111 2.185,0.414 3.057,1.576c0.471,0.577 0.729,1.106 0.775,1.586c0.079,0.823 -0.634,1.687 -2.139,2.593c-0.391,0.245 -0.715,0.483 -0.969,0.716c-7.562,7.022 -12.056,16.449 -13.482,28.281c-0.445,3.295 -1.627,5.035 -3.547,5.219Z" style="fill:#474f85;fill-rule:nonzero;"/><path d="M272.971,91.299c0.617,-0.059 1.456,-2.492 2.518,-7.3c1.061,-4.807 2.756,-11.492 5.083,-20.054c2.328,-8.562 3.403,-13.769 3.226,-15.62c-0.079,-0.823 -0.324,-1.215 -0.736,-1.175c-0.48,0.046 -1.213,0.704 -2.198,1.975c-7.602,10.21 -10.657,23.097 -9.164,38.663l0.227,2.366c0.079,0.822 0.427,1.204 1.044,1.145Zm30.827,27.043l-0.206,0.02c-2.605,0.25 -5.342,-2.671 -8.21,-8.763c-2.766,-5.755 -4.629,-13.638 -5.589,-23.65c-1.144,-11.931 -1.673,-19.25 -1.587,-21.958c-0.039,-0.411 -0.127,-0.61 -0.265,-0.597c-0.205,0.02 -0.58,1.163 -1.124,3.429c-2.94,13.361 -4.811,21.637 -5.612,24.828c-1.547,6.238 -3.932,9.512 -7.155,9.821c-4.594,0.441 -7.745,-1.749 -9.453,-6.567c-0.955,-2.746 -1.594,-5.799 -1.916,-9.159c-1.249,-13.028 1.528,-25.924 8.331,-38.687c1.996,-3.72 4.964,-5.787 8.904,-6.199c3.939,-0.412 6.352,-1.959 7.237,-4.639c0.884,-2.679 1.799,-6.314 2.743,-10.902l3.139,-15.975c0.602,-3.103 1.689,-4.764 3.259,-4.984c0.892,-0.086 1.653,-0.089 2.283,-0.011c2.877,0.416 4.445,1.615 4.704,3.597c0.138,1.44 -0.181,4.239 -0.959,8.396c-1.911,9.664 -3.349,17.76 -4.315,24.288c-1.739,11.447 -1.879,24.782 -0.42,40.004c0.073,0.755 0.529,5.33 1.368,13.727c0.84,8.397 3.224,15.036 7.152,19.919c0.869,0.401 1.35,1.082 1.442,2.042c0.098,1.028 -1.152,1.702 -3.751,2.02Z" style="fill:#474f85;fill-rule:nonzero;"/><path d="M310.89,93.788l-0.309,0.029c-3.497,0.335 -5.61,-1.849 -6.338,-6.555c-0.36,-2.318 -0.646,-4.574 -0.856,-6.768c-0.796,-8.297 -0.709,-16.056 0.259,-23.277c0.289,-2.035 1.497,-3.154 3.623,-3.358c3.702,-0.355 5.695,0.942 5.978,3.891c0.079,0.823 0.083,1.583 0.011,2.282c-0.879,8.873 -1.094,17.821 -0.644,26.843c0.073,0.754 0.224,1.432 0.455,2.032c0.23,0.601 0.378,1.244 0.444,1.93c0.053,0.549 0.054,1.102 0.004,1.661c-0.051,0.558 -0.926,0.988 -2.627,1.29Zm-0.684,-41.767l-1.449,0.035c-1.96,-0.227 -3.11,-1.397 -3.451,-3.51l-0.197,-2.057c-0.237,-2.469 0.479,-6.551 2.147,-12.247l0.376,-1.489c0.424,-1.356 1.387,-2.14 2.889,-2.353c0.685,-0.066 1.384,0.005 2.096,0.214c2.43,0.805 3.749,1.924 3.955,3.357c0.145,1.509 -1.117,6.751 -3.786,15.726c-0.485,1.431 -1.345,2.205 -2.58,2.324Z" style="fill:#474f85;fill-rule:nonzero;"/><path d="M349.051,84.731c-0.549,0.052 -1.035,0.03 -1.46,-0.068c-5.581,-1.195 -8.678,-4.981 -9.289,-11.358c-0.217,-2.263 -0.566,-3.371 -1.046,-3.325c-0.068,0.006 -1.548,2.259 -4.438,6.757c-1.621,2.578 -3.196,4.926 -4.722,7.045c-1.527,2.118 -3.182,3.263 -4.965,3.434c-1.371,0.132 -2.745,-0.117 -4.12,-0.747c-2.963,-1.307 -4.598,-3.573 -4.907,-6.795c-0.079,-0.823 -0.059,-1.69 0.062,-2.601c0.892,-8.736 4.184,-17.702 9.877,-26.898c2.339,-3.754 4.948,-5.768 7.828,-6.045c1.783,-0.171 3.449,0.241 4.997,1.234c1.549,0.993 2.362,1.901 2.441,2.724c0.079,0.823 0.004,1.488 -0.224,1.994c-0.616,1.512 -1.37,2.311 -2.261,2.397c-0.96,0.092 -1.731,-0.007 -2.312,-0.298c-0.582,-0.29 -1.082,-0.45 -1.5,-0.479c-0.411,0.04 -0.914,0.572 -1.507,1.598c-2.567,4.26 -4.944,10.508 -7.13,18.745c-0.313,1.068 -0.449,1.808 -0.41,2.22c0.033,0.342 0.152,0.504 0.358,0.484c1.029,-0.098 3.685,-3.433 7.968,-10.002c5.428,-8.34 8.809,-12.782 10.141,-13.325c0.734,-0.278 1.376,-0.443 1.924,-0.496c0.549,-0.053 1.001,-0.027 1.357,0.078c2.019,0.844 3.166,2.706 3.442,5.586c0.119,1.235 0.069,2.52 -0.149,3.855c-0.754,5.124 -0.951,9.572 -0.589,13.343c0.269,2.812 1.112,5.465 2.528,7.958c0.326,0.523 0.506,0.955 0.539,1.298c0.092,0.96 -0.719,1.522 -2.433,1.687Z" style="fill:#474f85;fill-rule:nonzero;"/><path d="M364.006,85.892c-1.234,0.118 -2.529,-0.034 -3.885,-0.458c-3.635,-1.105 -5.64,-3.611 -6.015,-7.52c-0.059,-0.617 -0.077,-1.169 -0.055,-1.656c0.752,-9.483 2.178,-18.789 4.278,-27.917c0.635,-2.76 1.841,-4.26 3.617,-4.499c0.823,-0.079 1.625,-0.018 2.405,0.184c2.198,0.551 3.424,1.783 3.676,3.696c0.079,0.823 0.024,1.693 -0.165,2.611c-2.937,12.669 -4.29,20.203 -4.06,22.603c0.039,0.412 0.162,0.607 0.367,0.588c0.96,-0.092 5.019,-8.647 12.176,-25.665c1.245,-2.888 2.725,-4.414 4.439,-4.578c0.618,-0.059 1.316,0.012 2.097,0.214c2.143,0.694 3.33,1.895 3.563,3.603c0.119,1.234 0.002,2.543 -0.35,3.926c-0.352,1.383 -0.738,4.932 -1.159,10.647c-0.19,3.063 -0.187,5.624 0.01,7.681c0.171,1.783 0.448,2.863 0.83,3.242c0.891,-0.086 2.034,-1.337 3.429,-3.754c1.394,-2.418 2.73,-5.625 4.008,-9.623c1.43,-4.566 1.962,-8.769 1.593,-12.609c-0.361,-3.772 -1.655,-6.796 -3.88,-9.074c-0.928,-1.018 -1.428,-1.905 -1.501,-2.659c-0.046,-0.48 0.145,-1.017 0.572,-1.612c0.428,-0.594 0.95,-0.921 1.567,-0.981c0.755,-0.072 1.689,0.288 2.803,1.081c4.606,3.295 7.249,7.402 7.928,12.319l0.547,4.619c0.263,2.743 -0.429,6.719 -2.074,11.928c-3.696,11.981 -8.012,18.207 -12.949,18.681c-1.097,0.105 -2.105,0.063 -3.022,-0.126c-5.219,-1.022 -8.095,-3.583 -8.626,-7.684c-0.092,-0.96 -0.134,-1.579 -0.126,-1.857c0.008,-0.277 0.005,-0.485 -0.008,-0.622l-0.113,-0.093c-0.068,0.007 -2.242,3.675 -6.522,11.006c-1.546,2.639 -3.345,4.092 -5.395,4.358Z" style="fill:#474f85;fill-rule:nonzero;"/><path d="M435.862,76.407c-0.549,0.052 -1.035,0.03 -1.46,-0.068c-5.581,-1.195 -8.678,-4.981 -9.289,-11.358c-0.217,-2.263 -0.566,-3.371 -1.046,-3.325c-0.068,0.007 -1.548,2.259 -4.438,6.758c-1.621,2.577 -3.196,4.925 -4.722,7.044c-1.527,2.118 -3.182,3.263 -4.965,3.434c-1.371,0.132 -2.745,-0.117 -4.12,-0.747c-2.963,-1.307 -4.598,-3.572 -4.907,-6.795c-0.079,-0.823 -0.059,-1.69 0.062,-2.601c0.892,-8.736 4.184,-17.702 9.877,-26.898c2.339,-3.753 4.948,-5.768 7.828,-6.044c1.783,-0.171 3.449,0.24 4.997,1.233c1.549,0.993 2.362,1.902 2.441,2.724c0.079,0.823 0.004,1.488 -0.224,1.994c-0.616,1.512 -1.37,2.311 -2.261,2.397c-0.96,0.092 -1.731,-0.007 -2.312,-0.297c-0.582,-0.291 -1.082,-0.45 -1.5,-0.48c-0.411,0.04 -0.914,0.573 -1.507,1.598c-2.567,4.26 -4.944,10.509 -7.13,18.746c-0.313,1.068 -0.449,1.807 -0.41,2.219c0.033,0.343 0.152,0.504 0.358,0.484c1.029,-0.098 3.685,-3.432 7.968,-10.002c5.428,-8.34 8.809,-12.782 10.141,-13.325c0.734,-0.278 1.376,-0.443 1.924,-0.496c0.549,-0.052 1.001,-0.027 1.357,0.078c2.019,0.844 3.166,2.706 3.442,5.586c0.119,1.235 0.069,2.52 -0.149,3.855c-0.754,5.124 -0.951,9.572 -0.589,13.344c0.269,2.811 1.112,5.464 2.528,7.958c0.326,0.522 0.506,0.954 0.539,1.297c0.092,0.96 -0.719,1.522 -2.433,1.687Z" style="fill:#474f85;fill-rule:nonzero;"/><path d="M450.16,77.216c-0.96,0.092 -1.905,-0.025 -2.836,-0.351c-3.847,-1.154 -5.953,-3.27 -6.318,-6.349c-0.085,-0.892 -0.089,-1.652 -0.011,-2.283c1.153,-8.899 2.242,-17.757 3.265,-26.575c0.292,-2.727 1.326,-4.21 3.102,-4.449c0.48,-0.046 1.073,0.001 1.778,0.141c2.897,0.621 4.479,1.958 4.745,4.008c0.059,0.617 -0.027,1.525 -0.258,2.724c-1.006,4.664 -1.421,7.921 -1.243,9.773c0.072,0.754 0.245,1.118 0.52,1.092c0.343,-0.033 0.928,-0.782 1.757,-2.245c3.914,-6.811 7.537,-12.695 10.867,-17.65c1.69,-2.585 3.492,-4.003 5.405,-4.256c1.029,-0.098 2.05,0.081 3.062,0.537c2.388,1.086 3.757,3.1 4.109,6.042c0.072,0.754 0.048,1.587 -0.072,2.498c-1.912,13.263 -2.683,21.814 -2.315,25.654c0.335,3.497 0.766,5.462 1.292,5.896c0.176,0.399 0.281,0.769 0.314,1.112c0.046,0.48 -0.187,0.935 -0.7,1.365c-0.512,0.429 -1.077,0.674 -1.694,0.733c-1.371,0.132 -2.727,-0.292 -4.066,-1.271c-2.816,-1.944 -4.477,-4.83 -4.982,-8.657c-0.5,-5.211 -0.742,-8.458 -0.727,-9.739c0.016,-1.282 -0.003,-2.197 -0.055,-2.746c-0.04,-0.411 -0.128,-0.61 -0.265,-0.597c-0.343,0.033 -3.496,6.84 -9.46,20.422c-1.419,3.25 -3.157,4.973 -5.214,5.171Z" style="fill:#474f85;fill-rule:nonzero;"/></g></svg>