<svg clip-rule="evenodd" fill-rule="evenodd" stroke-linejoin="round" stroke-miterlimit="2" viewBox="0 0 480 144" xmlns="http://www.w3.org/2000/svg"><g fill="#fff" fill-rule="nonzero"><path d="m32.469 94.637c.686-.066 1.499-.247 2.439-.545 2.416-.785 3.673-2.117 3.769-3.995l.199-3.34c.623-6.496.806-11.081.55-13.755-.112-1.166-.305-1.735-.58-1.709-.617.059-2.529 4.291-5.737 12.695-1.975 5.379-2.901 8.721-2.776 10.023.053.549.765.758 2.136.626zm21.954 37.34c-1.509.145-3.015-.403-4.518-1.643-2.499-2.252-4.429-5.232-5.788-8.943-1.359-3.71-2.446-7.291-3.261-10.742-.662-2.566-1.293-4.634-1.893-6.202-.6-1.569-1.277-2.317-2.031-2.245-3.223.309-5.83.905-7.822 1.788-1.991.883-3.188 2.832-3.591 5.846-.114.98-.164 2.265-.15 3.855-.215 5.695-.708 8.856-1.478 9.484-.509.464-1.106.729-1.792.794-1.029.099-2.203-.238-3.523-1.011-2.482-1.354-3.835-3.196-4.059-5.528-.105-1.097.034-2.356.417-3.776.382-1.421.541-2.474.475-3.16-.072-.754-.486-1.095-1.24-1.023-.617.059-1.879.613-3.785 1.66-1.906 1.048-3.134 1.598-3.683 1.651-1.028.099-2.097-.404-3.206-1.509-1.11-1.105-1.737-2.411-1.881-3.92-.152-1.577.606-2.878 2.272-3.903 1.667-1.025 3.879-1.946 6.638-2.764 4.701-1.489 7.803-3.067 9.304-4.733l17.27-47.225c1.503-3.812 4.072-5.892 7.706-6.241 1.303-.124 2.694-.05 4.173.223 2.479.593 3.798 1.712 3.955 3.358.138 1.44-.033 3.255-.515 5.447-3.455 20.261-4.598 36.495-3.427 48.7 1.216 12.686 3.695 21.583 7.438 26.691.791 1.031 1.209 1.787 1.255 2.267.053.549-.272 1.133-.974 1.754-.701.621-1.464.971-2.286 1.05z"/><path d="m67.122 113.943c-.96.092-1.905-.025-2.836-.351-3.848-1.153-5.954-3.269-6.318-6.348-.086-.892-.089-1.653-.011-2.283 1.153-8.899 2.241-17.758 3.264-26.575.292-2.727 1.327-4.21 3.103-4.45.48-.046 1.073.001 1.778.141 2.897.622 4.478 1.958 4.744 4.009.059.617-.027 1.525-.258 2.723-1.006 4.664-1.42 7.922-1.242 9.773.072.754.245 1.118.519 1.092.343-.033.929-.781 1.757-2.244 3.915-6.811 7.537-12.695 10.868-17.651 1.69-2.584 3.492-4.002 5.405-4.255 1.029-.099 2.049.08 3.062.537 2.388 1.086 3.757 3.1 4.108 6.042.073.754.049 1.587-.071 2.498-1.912 13.262-2.684 21.813-2.316 25.653.336 3.498.766 5.463 1.292 5.897.177.398.282.769.315 1.112.046.48-.188.935-.7 1.364-.512.43-1.077.675-1.694.734-1.372.131-2.727-.292-4.067-1.271-2.816-1.945-4.476-4.83-4.982-8.657-.499-5.211-.742-8.458-.726-9.74.015-1.281-.003-2.197-.056-2.745-.039-.412-.127-.611-.265-.598-.342.033-3.496 6.841-9.46 20.422-1.418 3.25-3.156 4.974-5.213 5.171z"/><path d="m107.03 110.117c-.96.092-1.905-.025-2.836-.351-3.847-1.154-5.953-3.27-6.318-6.349-.085-.892-.089-1.652-.011-2.283 1.153-8.899 2.242-17.757 3.265-26.575.292-2.727 1.326-4.21 3.102-4.449.48-.046 1.073.001 1.778.141 2.897.621 4.479 1.958 4.745 4.008.059.617-.027 1.525-.258 2.724-1.006 4.664-1.421 7.921-1.243 9.773.072.754.246 1.118.52 1.092.343-.033.928-.781 1.757-2.245 3.914-6.811 7.537-12.695 10.868-17.65 1.689-2.584 3.491-4.003 5.404-4.256 1.029-.098 2.05.081 3.062.537 2.388 1.086 3.757 3.1 4.109 6.042.072.754.048 1.587-.072 2.498-1.912 13.263-2.683 21.814-2.315 25.654.335 3.497.766 5.462 1.292 5.896.176.399.281.769.314 1.112.046.48-.187.935-.7 1.365-.512.43-1.077.674-1.694.733-1.371.132-2.727-.292-4.066-1.271-2.816-1.944-4.477-4.83-4.982-8.657-.5-5.211-.742-8.458-.727-9.739.016-1.282-.003-2.197-.055-2.746-.04-.411-.128-.61-.265-.597-.343.033-3.496 6.84-9.46 20.422-1.419 3.25-3.156 4.973-5.214 5.171z"/><path d="m168.537 102.039c-.548.053-1.035.03-1.459-.067-5.582-1.195-8.678-4.981-9.29-11.358-.217-2.263-.565-3.372-1.045-3.326-.069.007-1.548 2.26-4.439 6.758-1.621 2.577-3.195 4.926-4.722 7.044-1.527 2.119-3.182 3.264-4.965 3.435-1.371.131-2.744-.118-4.119-.747-2.963-1.308-4.599-3.573-4.908-6.796-.079-.823-.058-1.69.062-2.601.892-8.736 4.185-17.701 9.877-26.897 2.339-3.754 4.949-5.769 7.829-6.045 1.782-.171 3.448.24 4.997 1.234 1.548.993 2.362 1.901 2.441 2.724s.004 1.487-.224 1.994c-.617 1.512-1.37 2.311-2.262 2.396-.96.092-1.731-.007-2.312-.297s-1.081-.45-1.499-.479c-.412.039-.914.572-1.508 1.598-2.567 4.26-4.944 10.508-7.129 18.745-.313 1.068-.45 1.808-.41 2.219.032.343.152.505.357.485 1.029-.099 3.685-3.433 7.968-10.003 5.429-8.34 8.809-12.781 10.141-13.324.735-.278 1.376-.444 1.925-.496.548-.053 1.001-.027 1.357.077 2.018.845 3.166 2.707 3.442 5.587.118 1.234.068 2.519-.15 3.855-.754 5.124-.95 9.572-.589 13.343.27 2.811 1.112 5.464 2.528 7.958.327.522.507.955.54 1.298.092.96-.719 1.522-2.434 1.686z"/><path d="m214.741 107.574c-1.989.191-3.723.149-5.202-.124-6.744-1.775-10.715-6.377-11.912-13.805-.542-4.931-.973-7.623-1.293-8.077-.32-.453-.926-.638-1.818-.552-.953.161-2.435.579-4.446 1.257-.803.284-1.548.46-2.234.525-.96.092-1.737-.075-2.331-.503-1.552-1.027-2.414-2.433-2.585-4.215-.164-1.715 1.274-2.96 4.313-3.736 4.398-1.044 7.313-3.123 8.745-6.236.606-.888 1.406-4.46 2.398-10.714.845-5.617 1.212-9.009 1.1-10.174-.18-1.159-1.642-1.607-4.385-1.344l-1.337.128c-.754.072-1.448-.311-2.082-1.15s-1.035-1.769-1.202-2.791c-.151-1.577.731-2.838 2.648-3.783.989-.51 1.984-.952 2.987-1.325 1.867-.732 3.542-1.672 5.023-2.817 1.482-1.146 2.54-2.925 3.173-5.339.634-2.413 2.288-3.748 4.962-4.005 2.469-.236 3.766.297 3.891 1.6l-.044.627c-.163 1.192-.227 1.959-.195 2.302.099 1.028 1.108 1.451 3.028 1.267 5.943-1.539 10.799-2.489 14.571-2.851 2.605-.25 4.686-.207 6.24.128 2.123.489 3.355 1.789 3.696 3.902.164 1.714-.405 2.634-1.708 2.759-17.76 1.703-27.309 4.591-28.649 8.664-.218 1.335-.646 3.003-1.285 5.001-1.99 7.388-2.867 12.316-2.631 14.785.178 1.851 1.501 2.659 3.97 2.422.96-.092 2.953-.594 5.979-1.507 4.029-1.286 7.826-2.1 11.392-2.442 5.966-.572 9.307 1.08 10.025 4.955.158 1.646-.751 2.633-2.726 2.961-1.578.151-4.676.31-9.297.476-4.32.414-8.512 1.439-12.577 3.074-3.659 1.527-5.931 3.095-6.815 4.702-.525 1.019-.712 2.317-.561 3.894 1.039 10.835 3.036 16.145 5.991 15.93 3.84-.368 7.55-2.453 11.13-6.257.819-.84 1.606-1.296 2.36-1.368.617-.059 1.247.192 1.889.753s.999 1.219 1.071 1.973c.283 2.949-2.228 5.992-7.532 9.131-1.636.987-3.547 1.62-5.735 1.899z"/><path d="m246.544 97.155c-1.989.19-3.766-.297-5.331-1.461-.826-.682-1.302-1.675-1.427-2.978.236-14.139.637-25.838 1.202-35.096.159-1.953 1.095-3.012 2.81-3.176 4.182-.401 6.455 1.284 6.816 5.055.066.686-.017 1.628-.248 2.827-.273 1.479-.354 2.802-.242 3.967.099 1.029.285 1.53.559 1.504.206-.02.42-.317.641-.892 1.193-3.436 3.762-6.243 7.705-8.42 1.244-.742 2.517-1.176 3.82-1.301 1.165-.111 2.185.414 3.057 1.576.471.577.729 1.106.775 1.586.079.823-.634 1.687-2.139 2.593-.391.245-.715.483-.969.716-7.562 7.022-12.056 16.449-13.482 28.281-.445 3.295-1.627 5.035-3.547 5.219z"/><path d="m272.971 91.299c.617-.059 1.456-2.492 2.518-7.3 1.061-4.807 2.756-11.492 5.083-20.054 2.328-8.562 3.403-13.769 3.226-15.62-.079-.823-.324-1.215-.736-1.175-.48.046-1.213.704-2.198 1.975-7.602 10.21-10.657 23.097-9.164 38.663l.227 2.366c.079.822.427 1.204 1.044 1.145zm30.827 27.043-.206.02c-2.605.25-5.342-2.671-8.21-8.763-2.766-5.755-4.629-13.638-5.589-23.65-1.144-11.931-1.673-19.25-1.587-21.958-.039-.411-.127-.61-.265-.597-.205.02-.58 1.163-1.124 3.429-2.94 13.361-4.811 21.637-5.612 24.828-1.547 6.238-3.932 9.512-7.155 9.821-4.594.441-7.745-1.749-9.453-6.567-.955-2.746-1.594-5.799-1.916-9.159-1.249-13.028 1.528-25.924 8.331-38.687 1.996-3.72 4.964-5.787 8.904-6.199 3.939-.412 6.352-1.959 7.237-4.639.884-2.679 1.799-6.314 2.743-10.902l3.139-15.975c.602-3.103 1.689-4.764 3.259-4.984.892-.086 1.653-.089 2.283-.011 2.877.416 4.445 1.615 4.704 3.597.138 1.44-.181 4.239-.959 8.396-1.911 9.664-3.349 17.76-4.315 24.288-1.739 11.447-1.879 24.782-.42 40.004.073.755.529 5.33 1.368 13.727.84 8.397 3.224 15.036 7.152 19.919.869.401 1.35 1.082 1.442 2.042.098 1.028-1.152 1.702-3.751 2.02z"/><path d="m310.89 93.788-.309.029c-3.497.335-5.61-1.849-6.338-6.555-.36-2.318-.646-4.574-.856-6.768-.796-8.297-.709-16.056.259-23.277.289-2.035 1.497-3.154 3.623-3.358 3.702-.355 5.695.942 5.978 3.891.079.823.083 1.583.011 2.282-.879 8.873-1.094 17.821-.644 26.843.073.754.224 1.432.455 2.032.23.601.378 1.244.444 1.93.053.549.054 1.102.004 1.661-.051.558-.926.988-2.627 1.29zm-.684-41.767-1.449.035c-1.96-.227-3.11-1.397-3.451-3.51l-.197-2.057c-.237-2.469.479-6.551 2.147-12.247l.376-1.489c.424-1.356 1.387-2.14 2.889-2.353.685-.066 1.384.005 2.096.214 2.43.805 3.749 1.924 3.955 3.357.145 1.509-1.117 6.751-3.786 15.726-.485 1.431-1.345 2.205-2.58 2.324z"/><path d="m349.051 84.731c-.549.052-1.035.03-1.46-.068-5.581-1.195-8.678-4.981-9.289-11.358-.217-2.263-.566-3.371-1.046-3.325-.068.006-1.548 2.259-4.438 6.757-1.621 2.578-3.196 4.926-4.722 7.045-1.527 2.118-3.182 3.263-4.965 3.434-1.371.132-2.745-.117-4.12-.747-2.963-1.307-4.598-3.573-4.907-6.795-.079-.823-.059-1.69.062-2.601.892-8.736 4.184-17.702 9.877-26.898 2.339-3.754 4.948-5.768 7.828-6.045 1.783-.171 3.449.241 4.997 1.234 1.549.993 2.362 1.901 2.441 2.724s.004 1.488-.224 1.994c-.616 1.512-1.37 2.311-2.261 2.397-.96.092-1.731-.007-2.312-.298-.582-.29-1.082-.45-1.5-.479-.411.04-.914.572-1.507 1.598-2.567 4.26-4.944 10.508-7.13 18.745-.313 1.068-.449 1.808-.41 2.22.033.342.152.504.358.484 1.029-.098 3.685-3.433 7.968-10.002 5.428-8.34 8.809-12.782 10.141-13.325.734-.278 1.376-.443 1.924-.496.549-.053 1.001-.027 1.357.078 2.019.844 3.166 2.706 3.442 5.586.119 1.235.069 2.52-.149 3.855-.754 5.124-.951 9.572-.589 13.343.269 2.812 1.112 5.465 2.528 7.958.326.523.506.955.539 1.298.092.96-.719 1.522-2.433 1.687z"/><path d="m364.006 85.892c-1.234.118-2.529-.034-3.885-.458-3.635-1.105-5.64-3.611-6.015-7.52-.059-.617-.077-1.169-.055-1.656.752-9.483 2.178-18.789 4.278-27.917.635-2.76 1.841-4.26 3.617-4.499.823-.079 1.625-.018 2.405.184 2.198.551 3.424 1.783 3.676 3.696.079.823.024 1.693-.165 2.611-2.937 12.669-4.29 20.203-4.06 22.603.039.412.162.607.367.588.96-.092 5.019-8.647 12.176-25.665 1.245-2.888 2.725-4.414 4.439-4.578.618-.059 1.316.012 2.097.214 2.143.694 3.33 1.895 3.563 3.603.119 1.234.002 2.543-.35 3.926s-.738 4.932-1.159 10.647c-.19 3.063-.187 5.624.01 7.681.171 1.783.448 2.863.83 3.242.891-.086 2.034-1.337 3.429-3.754 1.394-2.418 2.73-5.625 4.008-9.623 1.43-4.566 1.962-8.769 1.593-12.609-.361-3.772-1.655-6.796-3.88-9.074-.928-1.018-1.428-1.905-1.501-2.659-.046-.48.145-1.017.572-1.612.428-.594.95-.921 1.567-.981.755-.072 1.689.288 2.803 1.081 4.606 3.295 7.249 7.402 7.928 12.319l.547 4.619c.263 2.743-.429 6.719-2.074 11.928-3.696 11.981-8.012 18.207-12.949 18.681-1.097.105-2.105.063-3.022-.126-5.219-1.022-8.095-3.583-8.626-7.684-.092-.96-.134-1.579-.126-1.857.008-.277.005-.485-.008-.622l-.113-.093c-.068.007-2.242 3.675-6.522 11.006-1.546 2.639-3.345 4.092-5.395 4.358z"/><path d="m435.862 76.407c-.549.052-1.035.03-1.46-.068-5.581-1.195-8.678-4.981-9.289-11.358-.217-2.263-.566-3.371-1.046-3.325-.068.007-1.548 2.259-4.438 6.758-1.621 2.577-3.196 4.925-4.722 7.044-1.527 2.118-3.182 3.263-4.965 3.434-1.371.132-2.745-.117-4.12-.747-2.963-1.307-4.598-3.572-4.907-6.795-.079-.823-.059-1.69.062-2.601.892-8.736 4.184-17.702 9.877-26.898 2.339-3.753 4.948-5.768 7.828-6.044 1.783-.171 3.449.24 4.997 1.233 1.549.993 2.362 1.902 2.441 2.724.079.823.004 1.488-.224 1.994-.616 1.512-1.37 2.311-2.261 2.397-.96.092-1.731-.007-2.312-.297-.582-.291-1.082-.45-1.5-.48-.411.04-.914.573-1.507 1.598-2.567 4.26-4.944 10.509-7.13 18.746-.313 1.068-.449 1.807-.41 2.219.033.343.152.504.358.484 1.029-.098 3.685-3.432 7.968-10.002 5.428-8.34 8.809-12.782 10.141-13.325.734-.278 1.376-.443 1.924-.496.549-.052 1.001-.027 1.357.078 2.019.844 3.166 2.706 3.442 5.586.119 1.235.069 2.52-.149 3.855-.754 5.124-.951 9.572-.589 13.344.269 2.811 1.112 5.464 2.528 7.958.326.522.506.954.539 1.297.092.96-.719 1.522-2.433 1.687z"/><path d="m450.16 77.216c-.96.092-1.905-.025-2.836-.351-3.847-1.154-5.953-3.27-6.318-6.349-.085-.892-.089-1.652-.011-2.283 1.153-8.899 2.242-17.757 3.265-26.575.292-2.727 1.326-4.21 3.102-4.449.48-.046 1.073.001 1.778.141 2.897.621 4.479 1.958 4.745 4.008.059.617-.027 1.525-.258 2.724-1.006 4.664-1.421 7.921-1.243 9.773.072.754.245 1.118.52 1.092.343-.033.928-.782 1.757-2.245 3.914-6.811 7.537-12.695 10.867-17.65 1.69-2.585 3.492-4.003 5.405-4.256 1.029-.098 2.05.081 3.062.537 2.388 1.086 3.757 3.1 4.109 6.042.072.754.048 1.587-.072 2.498-1.912 13.263-2.683 21.814-2.315 25.654.335 3.497.766 5.462 1.292 5.896.176.399.281.769.314 1.112.046.48-.187.935-.7 1.365-.512.429-1.077.674-1.694.733-1.371.132-2.727-.292-4.066-1.271-2.816-1.944-4.477-4.83-4.982-8.657-.5-5.211-.742-8.458-.727-9.739.016-1.282-.003-2.197-.055-2.746-.04-.411-.128-.61-.265-.597-.343.033-3.496 6.84-9.46 20.422-1.419 3.25-3.157 4.973-5.214 5.171z"/></g></svg>