<?xml version="1.0" encoding="UTF-8" standalone="no"?>
<!DOCTYPE svg PUBLIC "-//W3C//DTD SVG 1.1//EN" "http://www.w3.org/Graphics/SVG/1.1/DTD/svg11.dtd">
<svg width="100%" height="100%" viewBox="0 0 896 211" version="1.1" xmlns="http://www.w3.org/2000/svg" xmlns:xlink="http://www.w3.org/1999/xlink" xml:space="preserve" xmlns:serif="http://www.serif.com/" style="fill-rule:evenodd;clip-rule:evenodd;stroke-linejoin:round;stroke-miterlimit:2;">
    <g transform="matrix(1,0,0,1,-143.988,-368.081)">
        <g transform="matrix(2.9106,0,0,2.9106,-110.372,-636.138)">
            <path d="M142.505,379.152C142.972,379.185 143.28,379.402 143.43,379.802C143.58,380.202 143.539,380.593 143.305,380.977C143.072,381.36 142.722,381.535 142.255,381.502C138.889,381.235 135.122,381.435 130.955,382.102C130.589,393.102 129.872,404.368 128.805,415.902C128.772,416.402 128.547,416.727 128.13,416.877C127.714,417.027 127.322,416.977 126.955,416.727C126.589,416.477 126.439,416.118 126.505,415.652C127.505,404.418 128.205,393.368 128.605,382.502C125.572,383.102 122.022,383.985 117.955,385.152C113.022,386.552 108.439,388.152 104.205,389.952C101.872,397.285 100.072,404.252 98.805,410.852C98.672,411.518 98.255,411.852 97.555,411.852C96.889,411.852 96.522,411.552 96.455,410.952C96.455,410.852 96.472,410.735 96.505,410.602C97.705,404.268 99.305,397.818 101.305,391.252C97.005,393.285 93.155,395.502 89.755,397.902C89.355,398.168 88.947,398.202 88.53,398.002C88.114,397.802 87.88,397.518 87.83,397.152C87.78,396.785 87.922,396.435 88.255,396.102C92.355,393.202 97.022,390.585 102.255,388.252C104.089,382.618 106.139,377.052 108.405,371.552C108.472,371.352 108.797,370.543 109.38,369.127C109.964,367.71 110.33,366.818 110.48,366.452C110.63,366.085 110.989,365.243 111.555,363.927C112.122,362.61 112.539,361.693 112.805,361.177C113.072,360.66 113.497,359.818 114.08,358.652C114.664,357.485 115.155,356.602 115.555,356.002C115.955,355.402 116.464,354.618 117.08,353.652C117.697,352.685 118.272,351.893 118.805,351.277C119.339,350.66 119.939,350.002 120.605,349.302C121.272,348.602 121.939,347.985 122.605,347.452C123.772,346.518 124.814,345.985 125.73,345.852C126.647,345.718 127.405,345.943 128.005,346.527C128.605,347.11 129.089,347.86 129.455,348.777C129.822,349.693 130.105,350.802 130.305,352.102C130.772,354.902 131.08,358.085 131.23,361.652C131.38,365.218 131.43,368.043 131.38,370.127C131.33,372.21 131.222,375.418 131.055,379.752C135.255,379.118 139.072,378.918 142.505,379.152ZM116.555,383.152C121.189,381.785 125.239,380.785 128.705,380.152C128.905,376.318 128.997,372.035 128.98,367.302C128.964,362.568 128.739,358.302 128.305,354.502C128.272,354.402 128.23,354.052 128.18,353.452C128.13,352.852 128.072,352.318 128.005,351.852C127.939,351.385 127.855,350.852 127.755,350.252C127.655,349.652 127.497,349.152 127.28,348.752C127.064,348.352 126.822,348.102 126.555,348.002C125.489,347.502 123.539,349.152 120.705,352.952C118.872,355.418 117.105,358.302 115.405,361.602C113.705,364.902 112.347,367.802 111.33,370.302C110.314,372.802 109.105,375.968 107.705,379.802C106.805,382.235 105.955,384.652 105.155,387.052C108.689,385.618 112.489,384.318 116.555,383.152Z" style="fill:rgb(71,79,133);fill-rule:nonzero;stroke:rgb(71,79,133);stroke-width:0.86px;"/>
            <path d="M161.955,391.702C162.289,391.702 162.564,391.818 162.78,392.052C162.997,392.285 163.105,392.56 163.105,392.877C163.105,393.193 162.989,393.468 162.755,393.702C161.622,394.768 160.472,395.302 159.305,395.302C158.739,395.302 158.222,395.135 157.755,394.802C157.289,394.502 156.914,393.977 156.63,393.227C156.347,392.477 156.164,391.785 156.08,391.152C155.997,390.518 155.889,389.585 155.755,388.352C155.555,386.152 155.339,384.852 155.105,384.452C154.305,384.685 152.289,386.768 149.055,390.702C147.889,392.135 147.022,393.152 146.455,393.752C145.889,394.352 145.405,394.743 145.005,394.927C144.605,395.11 144.222,395.068 143.855,394.802C143.489,394.535 143.322,394.185 143.355,393.752C143.555,391.685 144.739,386.335 146.905,377.702C147.005,377.402 147.189,377.168 147.455,377.002C147.722,376.835 148.014,376.785 148.33,376.852C148.647,376.918 148.889,377.093 149.055,377.377C149.222,377.66 149.272,377.952 149.205,378.252C148.139,382.318 147.189,386.352 146.355,390.352C146.589,390.052 146.889,389.668 147.255,389.202C149.455,386.535 151.155,384.652 152.355,383.552C153.555,382.452 154.622,381.968 155.555,382.102C156.022,382.168 156.414,382.352 156.73,382.652C157.047,382.952 157.289,383.435 157.455,384.102C157.622,384.768 157.747,385.352 157.83,385.852C157.914,386.352 158.005,387.118 158.105,388.152C158.372,391.052 158.689,392.635 159.055,392.902C159.255,393.035 159.572,392.993 160.005,392.777C160.439,392.56 160.822,392.302 161.155,392.002C161.355,391.802 161.622,391.702 161.955,391.702Z" style="fill:rgb(71,79,133);fill-rule:nonzero;stroke:rgb(71,79,133);stroke-width:0.86px;"/>
            <path d="M179.805,391.702C180.139,391.702 180.414,391.818 180.63,392.052C180.847,392.285 180.955,392.56 180.955,392.877C180.955,393.193 180.839,393.468 180.605,393.702C179.472,394.768 178.322,395.302 177.155,395.302C176.589,395.302 176.072,395.135 175.605,394.802C175.139,394.502 174.764,393.977 174.48,393.227C174.197,392.477 174.014,391.785 173.93,391.152C173.847,390.518 173.739,389.585 173.605,388.352C173.405,386.152 173.189,384.852 172.955,384.452C172.155,384.685 170.139,386.768 166.905,390.702C165.739,392.135 164.872,393.152 164.305,393.752C163.739,394.352 163.255,394.743 162.855,394.927C162.455,395.11 162.072,395.068 161.705,394.802C161.339,394.535 161.172,394.185 161.205,393.752C161.405,391.685 162.589,386.335 164.755,377.702C164.855,377.402 165.039,377.168 165.305,377.002C165.572,376.835 165.864,376.785 166.18,376.852C166.497,376.918 166.739,377.093 166.905,377.377C167.072,377.66 167.122,377.952 167.055,378.252C165.989,382.318 165.039,386.352 164.205,390.352C164.439,390.052 164.739,389.668 165.105,389.202C167.305,386.535 169.005,384.652 170.205,383.552C171.405,382.452 172.472,381.968 173.405,382.102C173.872,382.168 174.264,382.352 174.58,382.652C174.897,382.952 175.139,383.435 175.305,384.102C175.472,384.768 175.597,385.352 175.68,385.852C175.764,386.352 175.855,387.118 175.955,388.152C176.222,391.052 176.539,392.635 176.905,392.902C177.105,393.035 177.422,392.993 177.855,392.777C178.289,392.56 178.672,392.302 179.005,392.002C179.205,391.802 179.472,391.702 179.805,391.702Z" style="fill:rgb(71,79,133);fill-rule:nonzero;stroke:rgb(71,79,133);stroke-width:0.86px;"/>
            <path d="M199.405,385.802C199.739,385.735 200.03,385.802 200.28,386.002C200.53,386.202 200.68,386.46 200.73,386.777C200.78,387.093 200.705,387.385 200.505,387.652C200.272,387.952 199.997,388.285 199.68,388.652C199.364,389.018 198.855,389.552 198.155,390.252C197.455,390.952 196.755,391.568 196.055,392.102C195.355,392.635 194.555,393.102 193.655,393.502C192.755,393.902 191.905,394.102 191.105,394.102C190.305,394.102 189.572,393.902 188.905,393.502C187.905,392.902 187.389,391.818 187.355,390.252C185.122,392.985 183.005,394.085 181.005,393.552C179.372,393.085 178.539,391.935 178.505,390.102C178.472,388.802 178.93,387.252 179.88,385.452C180.83,383.652 181.972,382.052 183.305,380.652C184.639,379.252 185.839,378.402 186.905,378.102C187.839,377.802 188.689,377.885 189.455,378.352C189.889,378.618 190.272,379.018 190.605,379.552L190.605,379.477L190.605,379.452C190.772,379.185 190.997,378.993 191.28,378.877C191.564,378.76 191.847,378.768 192.13,378.902C192.414,379.035 192.622,379.252 192.755,379.552C192.889,379.852 192.889,380.135 192.755,380.402C192.289,381.568 191.772,382.752 191.205,383.952C190.472,385.852 189.997,387.485 189.78,388.852C189.564,390.218 189.672,391.102 190.105,391.502C190.572,391.835 191.139,391.902 191.805,391.702C192.472,391.502 193.122,391.21 193.755,390.827C194.389,390.443 195.047,389.943 195.73,389.327C196.414,388.71 196.989,388.143 197.455,387.627C197.922,387.11 198.322,386.635 198.655,386.202C198.855,385.968 199.105,385.835 199.405,385.802ZM189.055,383.002C189.122,382.835 189.205,382.635 189.305,382.402C189.172,382.235 189.072,382.052 189.005,381.852C188.872,381.085 188.605,380.585 188.205,380.352C188.139,380.285 188.055,380.252 187.955,380.252C187.855,380.252 187.739,380.268 187.605,380.302C186.372,380.668 184.93,382.018 183.28,384.352C181.63,386.685 180.822,388.602 180.855,390.102C180.855,390.735 181.122,391.135 181.655,391.302C182.622,391.568 183.78,390.877 185.13,389.227C186.48,387.577 187.789,385.502 189.055,383.002Z" style="fill:rgb(71,79,133);fill-rule:nonzero;stroke:rgb(71,79,133);stroke-width:0.86px;"/>
            <path d="M261.655,392.052C262.022,391.752 262.405,391.693 262.805,391.877C263.205,392.06 263.439,392.352 263.505,392.752C263.572,393.152 263.439,393.518 263.105,393.852C262.772,394.152 261.78,394.968 260.13,396.302C258.48,397.635 257.405,398.493 256.905,398.877C256.405,399.26 255.414,400.043 253.93,401.227C252.447,402.41 251.355,403.235 250.655,403.702C249.955,404.168 248.922,404.893 247.555,405.877C246.189,406.86 245.039,407.61 244.105,408.127C243.172,408.643 242.08,409.26 240.83,409.977C239.58,410.693 238.364,411.31 237.18,411.827C235.997,412.343 234.789,412.818 233.555,413.252C232.389,413.652 231.214,414.01 230.03,414.327C228.847,414.643 227.514,414.935 226.03,415.202C224.547,415.468 223.147,415.552 221.83,415.452C220.514,415.352 219.272,415.11 218.105,414.727C216.939,414.343 215.947,413.66 215.13,412.677C214.314,411.693 213.789,410.452 213.555,408.952C213.255,407.085 213.289,405.118 213.655,403.052C214.022,400.985 214.68,398.935 215.63,396.902C216.58,394.868 217.522,393.052 218.455,391.452C219.389,389.852 220.505,388.152 221.805,386.352C225.672,380.818 229.822,376.252 234.255,372.652C234.222,372.652 234.064,372.677 233.78,372.727C233.497,372.777 233.272,372.818 233.105,372.852C231.872,373.085 230.897,373.243 230.18,373.327C229.464,373.41 228.514,373.402 227.33,373.302C226.147,373.202 225.205,372.902 224.505,372.402C223.372,371.635 222.68,370.527 222.43,369.077C222.18,367.627 222.289,366.118 222.755,364.552C223.222,362.985 223.805,361.518 224.505,360.152C225.205,358.785 225.922,357.668 226.655,356.802C228.722,354.302 231.222,352.102 234.155,350.202C237.089,348.302 240.122,346.918 243.255,346.052C246.155,345.218 248.272,345.252 249.605,346.152C250.839,346.952 251.564,348.11 251.78,349.627C251.997,351.143 251.639,352.452 250.705,353.552C250.405,353.885 250.03,354.01 249.58,353.927C249.13,353.843 248.822,353.627 248.655,353.277C248.489,352.927 248.539,352.552 248.805,352.152C249.305,351.552 249.614,351.01 249.73,350.527C249.847,350.043 249.797,349.643 249.58,349.327C249.364,349.01 249.055,348.743 248.655,348.527C248.255,348.31 247.805,348.16 247.305,348.077C246.805,347.993 246.305,347.952 245.805,347.952C245.305,347.952 244.872,348.002 244.505,348.102C242.772,348.502 240.789,349.268 238.555,350.402C233.722,352.868 230.055,355.885 227.555,359.452C225.922,361.785 225.055,364.102 224.955,366.402C224.889,368.002 225.13,369.16 225.68,369.877C226.23,370.593 227.255,370.952 228.755,370.952C233.055,370.952 237.122,370.018 240.955,368.152C241.989,367.585 242.539,367.285 242.605,367.252C243.039,367.052 243.414,367.077 243.73,367.327C244.047,367.577 244.197,367.927 244.18,368.377C244.164,368.827 243.955,369.168 243.555,369.402C237.055,372.535 230.839,378.068 224.905,386.002C222.272,389.502 220.122,392.918 218.455,396.252C216.789,399.585 215.889,402.902 215.755,406.202C215.689,407.802 215.939,409.127 216.505,410.177C217.072,411.227 217.83,411.968 218.78,412.402C219.73,412.835 220.864,413.077 222.18,413.127C223.497,413.177 224.822,413.085 226.155,412.852C227.489,412.618 228.889,412.277 230.355,411.827C231.822,411.377 233.097,410.935 234.18,410.502C235.264,410.068 236.289,409.635 237.255,409.202C238.489,408.602 239.722,407.96 240.955,407.277C242.189,406.593 243.455,405.827 244.755,404.977C246.055,404.127 247.189,403.368 248.155,402.702C249.122,402.035 250.314,401.143 251.73,400.027C253.147,398.91 254.222,398.06 254.955,397.477C255.689,396.893 256.839,395.96 258.405,394.677C259.972,393.393 261.055,392.518 261.655,392.052Z" style="fill:rgb(71,79,133);fill-rule:nonzero;stroke:rgb(71,79,133);stroke-width:0.86px;"/>
            <path d="M274.755,378.202C275.089,378.235 275.355,378.377 275.555,378.627C275.755,378.877 275.839,379.16 275.805,379.477C275.772,379.793 275.622,380.052 275.355,380.252C275.089,380.452 274.805,380.535 274.505,380.502C272.972,380.302 271.43,380.977 269.88,382.527C268.33,384.077 266.98,386.06 265.83,388.477C264.68,390.893 263.689,393.552 262.855,396.452C262.722,396.985 262.389,397.268 261.855,397.302C261.822,397.335 261.789,397.352 261.755,397.352C261.255,397.352 260.905,397.135 260.705,396.702C259.905,395.068 261.272,387.218 264.805,373.152C264.872,372.852 265.047,372.618 265.33,372.452C265.614,372.285 265.905,372.243 266.205,372.327C266.505,372.41 266.739,372.585 266.905,372.852C267.072,373.118 267.122,373.418 267.055,373.752C265.889,378.452 264.889,382.818 264.055,386.852C265.522,383.985 267.164,381.76 268.98,380.177C270.797,378.593 272.722,377.935 274.755,378.202Z" style="fill:rgb(71,79,133);fill-rule:nonzero;stroke:rgb(71,79,133);stroke-width:0.86px;"/>
            <path d="M299.355,389.102C299.555,388.835 299.814,388.677 300.13,388.627C300.447,388.577 300.739,388.635 301.005,388.802C301.272,388.968 301.439,389.21 301.505,389.527C301.572,389.843 301.505,390.135 301.305,390.402C301.172,390.602 301.005,390.835 300.805,391.102C300.605,391.368 300.205,391.818 299.605,392.452C299.005,393.085 298.389,393.635 297.755,394.102C297.122,394.568 296.339,394.993 295.405,395.377C294.472,395.76 293.539,395.952 292.605,395.952C291.972,395.952 291.339,395.868 290.705,395.702C288.439,395.068 286.989,393.268 286.355,390.302C286.122,389.268 286.005,388.102 286.005,386.802C283.505,390.002 281.38,392.202 279.63,393.402C277.88,394.602 276.339,394.735 275.005,393.802C274.972,393.802 274.939,393.768 274.905,393.702C273.339,392.335 273.055,390.335 274.055,387.702C274.789,385.802 276.039,383.943 277.805,382.127C279.572,380.31 281.122,379.402 282.455,379.402C282.789,379.402 283.072,379.518 283.305,379.752C283.539,379.985 283.655,380.26 283.655,380.577C283.655,380.893 283.539,381.168 283.305,381.402C283.072,381.635 282.789,381.752 282.455,381.752C281.822,381.752 280.789,382.477 279.355,383.927C277.922,385.377 276.889,386.918 276.255,388.552C275.655,390.118 275.705,391.252 276.405,391.952C277.839,392.752 281.122,389.618 286.255,382.552C286.955,376.785 288.755,370.535 291.655,363.802C294.555,357.068 297.272,352.635 299.805,350.502C301.205,349.335 302.472,348.968 303.605,349.402C304.205,349.668 304.605,350.135 304.805,350.802C305.405,352.835 304.097,357.018 300.88,363.352C297.664,369.685 293.789,376.018 289.255,382.352C288.889,382.852 288.622,383.218 288.455,383.452C288.189,385.985 288.239,388.102 288.605,389.802C289.072,391.868 289.989,393.085 291.355,393.452C291.789,393.618 292.247,393.677 292.73,393.627C293.214,393.577 293.655,393.502 294.055,393.402C294.455,393.302 294.872,393.127 295.305,392.877C295.739,392.627 296.114,392.393 296.43,392.177C296.747,391.96 297.072,391.693 297.405,391.377C297.739,391.06 298.005,390.793 298.205,390.577C298.405,390.36 298.605,390.118 298.805,389.852C299.005,389.585 299.139,389.41 299.205,389.327C299.272,389.243 299.322,389.185 299.355,389.152L299.355,389.102ZM301.305,352.302C299.305,353.968 297.105,357.402 294.705,362.602C292.305,367.802 290.522,372.968 289.355,378.102C293.622,371.868 296.972,366.185 299.405,361.052C301.839,355.918 302.905,352.768 302.605,351.602C302.272,351.602 301.839,351.835 301.305,352.302Z" style="fill:rgb(71,79,133);fill-rule:nonzero;stroke:rgb(71,79,133);stroke-width:0.86px;"/>
            <path d="M313.905,382.852C314.239,382.785 314.539,382.843 314.805,383.027C315.072,383.21 315.23,383.46 315.28,383.777C315.33,384.093 315.255,384.385 315.055,384.652C314.522,385.385 313.914,386.168 313.23,387.002C312.547,387.835 311.605,388.877 310.405,390.127C309.205,391.377 307.939,392.393 306.605,393.177C305.272,393.96 304.055,394.352 302.955,394.352C302.255,394.352 301.605,394.202 301.005,393.902C300.272,393.468 299.814,392.635 299.63,391.402C299.447,390.168 299.522,388.735 299.855,387.102C300.189,385.468 300.539,384.018 300.905,382.752C301.272,381.485 301.689,380.218 302.155,378.952C302.255,378.652 302.447,378.435 302.73,378.302C303.014,378.168 303.305,378.152 303.605,378.252C303.805,378.318 303.972,378.435 304.105,378.602C304.239,378.768 304.322,378.943 304.355,379.127C304.389,379.31 304.372,379.518 304.305,379.752C303.605,381.685 303.03,383.593 302.58,385.477C302.13,387.36 301.889,388.818 301.855,389.852C301.822,390.885 301.922,391.552 302.155,391.852C303.255,392.452 304.905,391.81 307.105,389.927C309.305,388.043 311.322,385.835 313.155,383.302C313.355,383.035 313.605,382.885 313.905,382.852ZM302.955,374.452C302.389,374.452 302.022,374.185 301.855,373.652C301.722,373.352 301.73,373.06 301.88,372.777C302.03,372.493 302.255,372.285 302.555,372.152C302.622,372.152 302.73,372.118 302.88,372.052C303.03,371.985 303.189,371.918 303.355,371.852C303.522,371.785 303.68,371.718 303.83,371.652C303.98,371.585 304.114,371.527 304.23,371.477C304.347,371.427 304.405,371.402 304.405,371.402L305.305,373.602C304.239,374.035 303.572,374.285 303.305,374.352C303.205,374.418 303.089,374.452 302.955,374.452Z" style="fill:rgb(71,79,133);fill-rule:nonzero;stroke:rgb(71,79,133);stroke-width:0.86px;"/>
            <path d="M331.555,385.802C331.889,385.735 332.18,385.802 332.43,386.002C332.68,386.202 332.83,386.46 332.88,386.777C332.93,387.093 332.855,387.385 332.655,387.652C332.422,387.952 332.147,388.285 331.83,388.652C331.514,389.018 331.005,389.552 330.305,390.252C329.605,390.952 328.905,391.568 328.205,392.102C327.505,392.635 326.705,393.102 325.805,393.502C324.905,393.902 324.055,394.102 323.255,394.102C322.455,394.102 321.722,393.902 321.055,393.502C320.055,392.902 319.539,391.818 319.505,390.252C317.272,392.985 315.155,394.085 313.155,393.552C311.522,393.085 310.689,391.935 310.655,390.102C310.622,388.802 311.08,387.252 312.03,385.452C312.98,383.652 314.122,382.052 315.455,380.652C316.789,379.252 317.989,378.402 319.055,378.102C319.989,377.802 320.839,377.885 321.605,378.352C322.039,378.618 322.422,379.018 322.755,379.552L322.755,379.477L322.755,379.452C322.922,379.185 323.147,378.993 323.43,378.877C323.714,378.76 323.997,378.768 324.28,378.902C324.564,379.035 324.772,379.252 324.905,379.552C325.039,379.852 325.039,380.135 324.905,380.402C324.439,381.568 323.922,382.752 323.355,383.952C322.622,385.852 322.147,387.485 321.93,388.852C321.714,390.218 321.822,391.102 322.255,391.502C322.722,391.835 323.289,391.902 323.955,391.702C324.622,391.502 325.272,391.21 325.905,390.827C326.539,390.443 327.197,389.943 327.88,389.327C328.564,388.71 329.139,388.143 329.605,387.627C330.072,387.11 330.472,386.635 330.805,386.202C331.005,385.968 331.255,385.835 331.555,385.802ZM321.205,383.002C321.272,382.835 321.355,382.635 321.455,382.402C321.322,382.235 321.222,382.052 321.155,381.852C321.022,381.085 320.755,380.585 320.355,380.352C320.289,380.285 320.205,380.252 320.105,380.252C320.005,380.252 319.889,380.268 319.755,380.302C318.522,380.668 317.08,382.018 315.43,384.352C313.78,386.685 312.972,388.602 313.005,390.102C313.005,390.735 313.272,391.135 313.805,391.302C314.772,391.568 315.93,390.877 317.28,389.227C318.63,387.577 319.939,385.502 321.205,383.002Z" style="fill:rgb(71,79,133);fill-rule:nonzero;stroke:rgb(71,79,133);stroke-width:0.86px;"/>
            <path d="M354.705,379.252C355.039,379.318 355.305,379.477 355.505,379.727C355.705,379.977 355.789,380.252 355.755,380.552C355.589,381.952 354.572,384.068 352.705,386.902C350.839,389.735 349.089,391.535 347.455,392.302C346.322,392.835 345.322,392.818 344.455,392.252C342.822,391.218 342.255,388.702 342.755,384.702C340.089,388.302 337.897,390.86 336.18,392.377C334.464,393.893 333.089,394.652 332.055,394.652C331.722,394.652 331.405,394.552 331.105,394.352C330.372,393.885 329.98,393.01 329.93,391.727C329.88,390.443 330.13,388.91 330.68,387.127C331.23,385.343 331.805,383.693 332.405,382.177C333.005,380.66 333.705,379.085 334.505,377.452C334.639,377.152 334.855,376.952 335.155,376.852C335.455,376.752 335.755,376.768 336.055,376.902C336.355,377.035 336.555,377.252 336.655,377.552C336.755,377.852 336.739,378.152 336.605,378.452C335.139,381.552 333.98,384.493 333.13,387.277C332.28,390.06 332.022,391.752 332.355,392.352C333.155,392.185 334.705,390.768 337.005,388.102C339.305,385.435 341.672,382.302 344.105,378.702C344.472,378.135 344.955,378.002 345.555,378.302C345.822,378.402 346.014,378.585 346.13,378.852C346.247,379.118 346.272,379.385 346.205,379.652C345.805,381.018 345.48,382.443 345.23,383.927C344.98,385.41 344.88,386.768 344.93,388.002C344.98,389.235 345.239,390.002 345.705,390.302C345.839,390.402 346.089,390.368 346.455,390.202C347.722,389.602 349.172,388.043 350.805,385.527C352.439,383.01 353.322,381.268 353.455,380.302C353.489,379.968 353.63,379.702 353.88,379.502C354.13,379.302 354.405,379.218 354.705,379.252Z" style="fill:rgb(71,79,133);fill-rule:nonzero;stroke:rgb(71,79,133);stroke-width:0.86px;"/>
            <path d="M376.905,385.802C377.239,385.735 377.53,385.802 377.78,386.002C378.03,386.202 378.18,386.46 378.23,386.777C378.28,387.093 378.205,387.385 378.005,387.652C377.772,387.952 377.497,388.285 377.18,388.652C376.864,389.018 376.355,389.552 375.655,390.252C374.955,390.952 374.255,391.568 373.555,392.102C372.855,392.635 372.055,393.102 371.155,393.502C370.255,393.902 369.405,394.102 368.605,394.102C367.805,394.102 367.072,393.902 366.405,393.502C365.405,392.902 364.889,391.818 364.855,390.252C362.622,392.985 360.505,394.085 358.505,393.552C356.872,393.085 356.039,391.935 356.005,390.102C355.972,388.802 356.43,387.252 357.38,385.452C358.33,383.652 359.472,382.052 360.805,380.652C362.139,379.252 363.339,378.402 364.405,378.102C365.339,377.802 366.189,377.885 366.955,378.352C367.389,378.618 367.772,379.018 368.105,379.552L368.105,379.477L368.105,379.452C368.272,379.185 368.497,378.993 368.78,378.877C369.064,378.76 369.347,378.768 369.63,378.902C369.914,379.035 370.122,379.252 370.255,379.552C370.389,379.852 370.389,380.135 370.255,380.402C369.789,381.568 369.272,382.752 368.705,383.952C367.972,385.852 367.497,387.485 367.28,388.852C367.064,390.218 367.172,391.102 367.605,391.502C368.072,391.835 368.639,391.902 369.305,391.702C369.972,391.502 370.622,391.21 371.255,390.827C371.889,390.443 372.547,389.943 373.23,389.327C373.914,388.71 374.489,388.143 374.955,387.627C375.422,387.11 375.822,386.635 376.155,386.202C376.355,385.968 376.605,385.835 376.905,385.802ZM366.555,383.002C366.622,382.835 366.705,382.635 366.805,382.402C366.672,382.235 366.572,382.052 366.505,381.852C366.372,381.085 366.105,380.585 365.705,380.352C365.639,380.285 365.555,380.252 365.455,380.252C365.355,380.252 365.239,380.268 365.105,380.302C363.872,380.668 362.43,382.018 360.78,384.352C359.13,386.685 358.322,388.602 358.355,390.102C358.355,390.735 358.622,391.135 359.155,391.302C360.122,391.568 361.28,390.877 362.63,389.227C363.98,387.577 365.289,385.502 366.555,383.002Z" style="fill:rgb(71,79,133);fill-rule:nonzero;stroke:rgb(71,79,133);stroke-width:0.86px;"/>
            <path d="M393.405,391.702C393.739,391.702 394.014,391.818 394.23,392.052C394.447,392.285 394.555,392.56 394.555,392.877C394.555,393.193 394.439,393.468 394.205,393.702C393.072,394.768 391.922,395.302 390.755,395.302C390.189,395.302 389.672,395.135 389.205,394.802C388.739,394.502 388.364,393.977 388.08,393.227C387.797,392.477 387.614,391.785 387.53,391.152C387.447,390.518 387.339,389.585 387.205,388.352C387.005,386.152 386.789,384.852 386.555,384.452C385.755,384.685 383.739,386.768 380.505,390.702C379.339,392.135 378.472,393.152 377.905,393.752C377.339,394.352 376.855,394.743 376.455,394.927C376.055,395.11 375.672,395.068 375.305,394.802C374.939,394.535 374.772,394.185 374.805,393.752C375.005,391.685 376.189,386.335 378.355,377.702C378.455,377.402 378.639,377.168 378.905,377.002C379.172,376.835 379.464,376.785 379.78,376.852C380.097,376.918 380.339,377.093 380.505,377.377C380.672,377.66 380.722,377.952 380.655,378.252C379.589,382.318 378.639,386.352 377.805,390.352C378.039,390.052 378.339,389.668 378.705,389.202C380.905,386.535 382.605,384.652 383.805,383.552C385.005,382.452 386.072,381.968 387.005,382.102C387.472,382.168 387.864,382.352 388.18,382.652C388.497,382.952 388.739,383.435 388.905,384.102C389.072,384.768 389.197,385.352 389.28,385.852C389.364,386.352 389.455,387.118 389.555,388.152C389.822,391.052 390.139,392.635 390.505,392.902C390.705,393.035 391.022,392.993 391.455,392.777C391.889,392.56 392.272,392.302 392.605,392.002C392.805,391.802 393.072,391.702 393.405,391.702Z" style="fill:rgb(71,79,133);fill-rule:nonzero;stroke:rgb(71,79,133);stroke-width:0.86px;"/>
        </g>
    </g>
</svg>
