<?xml version="1.0" encoding="UTF-8" standalone="no"?>
<svg
   xmlns="http://www.w3.org/2000/svg"
   id="svg16"
   preserveAspectRatio="xMidYMid meet"
   viewBox="0 0 230.728203 244.616739"
   height="244.616739pt"
   width="230.728203pt"
   version="1.0">
   <g
      stroke="none"
      fill="#000000"
      transform="translate(-23.154748,271.682489) scale(0.100000,-0.100000)">
      <path
         id="path4"
         d="M1233 2706 c-202 -39 -396 -136 -584 -292 -87 -73 -193 -183 -236 -245 -85 -123 -154 -304 -174 -455 -31 -231 36 -732 121 -913 16 -33 30 -61 32 -61 2 0 2 55 0 123 -10 358 134 868 288 1027 43 44 129 96 189 115 19 6 13 -6 -32 -58 -85 -100 -89 -117 -13 -59 78 60 170 113 268 154 60 25 91 31 207 39 253 17 657 -22 764 -75 26 -12 47 -20 47 -17 0 3 32 49 71 101 64 86 69 98 64 130 -10 54 -51 118 -129 198 -124 129 -293 225 -479 273 -105 27 -302 34 -404 15z" />
      <path
         id="path6"
         d="M2265 2061 c-42 -25 -82 -74 -90 -111 -6 -26 -1 -37 35 -78 78 -88 152 -231 185 -358 26 -101 37 -217 44 -464 l6 -245 28 111 c66 268 80 551 38 779 -39 215 -74 319 -123 365 -28 25 -83 26 -123 1z" />
      <path
         id="path8"
         d="M1941 1039 c-73 -13 -217 -62 -291 -99 -60 -30 -61 -32 -55 -63 4 -18 8 -33 10 -35 1 -1 36 11 78 27 216 86 445 103 608 46 55 -20 49 -3 -17 44 -101 73 -217 100 -333 80z" />
      <path
         id="path10"
         d="M708 1021 c-63 -20 -141 -67 -177 -105 l-23 -25 63 21 c94 30 281 36 385 13 67 -15 215 -63 277 -90 16 -7 18 -3 15 36 l-3 43 -90 39 c-113 49 -260 87 -334 86 -31 0 -82 -8 -113 -18z" />
      <path
         id="path12"
         d="M782 810 c-126 -13 -219 -35 -325 -76 l-97 -37 0 -54 c0 -48 2 -53 25 -59 36 -9 71 -55 79 -104 7 -44 43 -121 74 -157 34 -39 91 -48 327 -48 222 0 261 5 347 42 63 27 167 210 168 295 0 58 56 84 123 59 21 -8 26 -19 32 -66 7 -59 61 -177 111 -242 49 -65 167 -92 394 -92 176 0 286 13 320 37 35 26 89 137 98 202 7 50 10 57 45 75 37 20 38 21 35 74 l-3 54 -104 33 c-249 82 -593 95 -813 32 -109 -31 -205 -34 -281 -9 -34 11 -89 25 -122 31 -81 15 -331 21 -433 10z m416 -54 c117 -25 115 -23 110 -125 -4 -78 -8 -94 -42 -157 -80 -146 -112 -159 -396 -159 -228 0 -253 6 -293 68 -37 57 -55 121 -63 227 l-7 89 39 16 c53 22 152 44 243 55 105 12 321 5 409 -14z m913 13 c108 -10 194 -29 261 -56 l40 -16 -7 -61 c-16 -156 -45 -246 -92 -288 -30 -27 -152 -41 -318 -35 -193 6 -255 23 -297 81 -71 97 -109 217 -94 299 6 32 10 36 68 52 119 33 270 42 439 24z" />
   </g>
   <style>
      g {
         fill: #474f85;
      }
      @media (prefers-color-scheme: dark) {
         g {
            fill: #51e3d4;
         }
      }
   </style>
</svg>
